<?xml version="1.0" encoding="utf-8"?>
<!-- Generator: Adobe Illustrator 22.0.1, SVG Export Plug-In . SVG Version: 6.00 Build 0)  -->
<svg version="1.1" id="Layer_1" xmlns="http://www.w3.org/2000/svg" xmlns:xlink="http://www.w3.org/1999/xlink" x="0px" y="0px"
	 viewBox="0 0 512 512" style="enable-background:new 0 0 512 512;" xml:space="preserve">
<style type="text/css">
	.st0{fill:#F44336;}
	.st1{fill:#D32F2F;}
	.st2{fill:#FFFFFF;}
</style>
<g>
	<path class="st0" d="M74.8,504C38,504,8,474,8,437.2V74.8C8,38,38,8,74.8,8h362.4C474,8,504,38,504,74.8v362.4
		c0,36.8-30,66.8-66.8,66.8H74.8z"/>
	<path class="st1" d="M437.2,16c15.6,0,30.4,6.1,41.5,17.3S496,59.2,496,74.8v362.4c0,15.6-6.1,30.4-17.3,41.5S452.8,496,437.2,496
		H74.8c-15.6,0-30.4-6.1-41.5-17.3S16,452.8,16,437.2V74.8c0-15.6,6.1-30.4,17.3-41.5S59.2,16,74.8,16H437.2 M437.2,0H74.8
		C33.7,0,0,33.7,0,74.8v362.4C0,478.3,33.7,512,74.8,512h362.4c41.1,0,74.8-33.7,74.8-74.8V74.8C512,33.7,478.3,0,437.2,0L437.2,0z"
		/>
</g>
<g>
	<path class="st2" d="M24,125.8c8.6-3.3,16.8-6.2,24.7-8.9c7.9-2.7,15.2-5,21.8-6.9c6.6-2,12.5-3.4,17.6-4.5c5.1-1,9.1-1.6,12-1.6
		c7,0,12.5,2.2,16.4,6.7c3.9,4.5,5.9,12.2,5.9,23.1c0,2.6-0.2,8.2-0.7,16.7c-0.5,8.5-1.2,19.2-2.1,32.1s-2,27.6-3.4,44.1
		c-1.3,16.5-2.8,34.1-4.5,52.7l1.1,0.2c8.4-33.1,17.4-60.8,27-83.3c9.5-22.5,19.3-40.6,29.2-54.4c9.9-13.8,19.9-23.7,29.9-29.6
		c10-5.9,19.7-8.9,29.2-8.9c8.3,0,15.4,2.2,21.2,6.6c5.8,4.4,10.5,10.2,14.1,17.4c3.6,7.2,6.3,15.3,8,24.3
		c1.7,9.1,2.5,18.3,2.5,27.6c0,8.2-0.2,16.9-0.7,26.1c-0.5,9.2-1.1,18.2-1.8,27.1c-0.7,8.9-1.5,17.4-2.3,25.4c-0.8,8-1.5,15-2.1,21
		l1.1,0.2c8.4-33.6,17.5-61.7,27.1-84.5c9.6-22.7,19.4-41,29.3-54.8c10-13.8,19.9-23.7,30-29.6c10-5.9,19.7-8.9,29.2-8.9
		c6,0,11.9,1.4,17.6,4.1c5.7,2.7,10.7,7.1,15.1,13.2c4.4,6.1,7.9,13.8,10.6,23.3c2.7,9.5,4,21,4,34.4c0,3.8-0.2,9-0.6,15.5
		c-0.4,6.6-0.9,13.9-1.5,22c-0.6,8.1-1.3,16.6-2.1,25.7c-0.8,9.1-1.5,17.9-2.1,26.7c-0.6,8.7-1.1,17-1.5,24.9
		c-0.4,7.9-0.6,14.7-0.6,20.4c0,10.2,0.4,18.4,1.2,24.8c0.8,6.4,2.1,11.4,3.9,15.1s4.2,6.3,7.2,7.6c3,1.4,6.7,2.1,11,2.1
		c6.3,0,12.8-0.9,19.6-2.8c6.8-1.9,13.6-4.5,20.5-7.9l3.4,10.2c-4.3,3.8-9.8,7.6-16.5,11.5c-6.6,3.9-13.6,7.5-20.9,10.7
		c-7.3,3.3-14.6,5.9-21.8,7.9c-7.2,2-13.6,3-19.2,3c-6.5,0-11.7-1.9-15.4-5.7c-3.7-3.8-6.5-8.9-8.4-15.4c-1.9-6.5-3.1-14.1-3.6-22.9
		c-0.5-8.7-0.8-18.1-0.8-28.1c0-12.1,0.4-24.8,1.2-38.1c0.8-13.3,1.7-25.9,2.6-37.9c1-12,1.8-22.8,2.6-32.5c0.8-9.7,1.2-17,1.2-22
		c0-14.2-2.3-24.8-7-31.9c-4.6-7.1-11-10.6-18.9-10.6c-6.2,0-12.7,3.2-19.6,9.5c-6.9,6.3-13.9,15-20.8,26.1
		c-6.9,11.1-13.6,24.1-20.1,39.2c-6.5,15-12.3,31.3-17.5,48.9c-5.2,17.6-9.6,36-13.1,55.2c-3.6,19.2-5.9,38.4-7,57.7l-37.8,5.1
		l-2.9-0.2c1.3-27.3,2.6-51.6,3.7-72.7c1.1-21.1,2.2-39.5,3.1-55.3c0.9-15.8,1.6-29.1,2.2-40c0.5-10.9,0.8-20,0.8-27.1
		c0-14.6-2.3-25.6-7-33c-4.6-7.4-10.6-11.1-17.8-11.1c-6.4,0-13.1,3.1-20.2,9.3c-7.1,6.2-14,14.7-20.9,25.7s-13.5,23.9-19.8,38.8
		c-6.3,14.9-12.1,31-17.2,48.3c-5.1,17.3-9.4,35.5-12.9,54.7c-3.4,19.1-5.7,38.3-6.8,57.6l-37.8,5.1l-2.9-0.2
		c1-12.4,1.9-25.8,2.7-40.4c0.8-14.6,1.6-29.4,2.4-44.4c0.7-15,1.4-29.9,1.9-44.7c0.5-14.8,1-28.6,1.4-41.4
		c0.4-12.8,0.7-24.3,0.9-34.5c0.2-10.2,0.3-18.2,0.3-24c0-5.3-0.4-9.8-1.1-13.5c-0.7-3.6-1.8-6.5-3.4-8.7c-1.5-2.1-3.4-3.7-5.7-4.6
		c-2.3-0.9-5-1.4-8.1-1.4c-4.3,0-9.5,0.7-15.6,2c-6,1.3-12.9,3.1-20.6,5.3L24,125.8z"/>
</g>
</svg>
