<svg version="1" xmlns="http://www.w3.org/2000/svg" width="933.333" height="933.333" viewBox="0 0 700.000000 700.000000"><path d="M82 2C70.8 4.4 63.3 7.1 54.3 12 31.7 24.2 13.5 45.4 5.5 69-.3 86.1 0 69.3 0 350c0 225.9.2 258.8 1.5 265.7 8 42.4 40.4 74.8 82.8 82.8 6.9 1.3 39.8 1.5 265.7 1.5 225.9 0 258.8-.2 265.7-1.5 42.4-8 74.8-40.4 82.8-82.8 1.3-6.9 1.5-39.8 1.5-265.7 0-225.9-.2-258.8-1.5-265.7-8-42.4-40.4-74.8-82.8-82.8C608.8.2 576 0 349.1.1 101.7.1 90.1.2 82 2zm455.5 138.4c7.5 2 14.3 5.2 20.1 9.6 13.3 10.1 24.1 31.7 29.1 58.4 2.1 11.3 2.3 46.5.5 70.1-9.3 117-9.6 122.2-8.9 155.5.6 27.7 1.5 35.1 5.8 45 2.6 6.1 8.4 11.5 14.1 13.2 11.5 3.3 35 0 53.5-7.7 13.4-5.6 12.5-5.7 15 1.9l2.1 6.5-3.7 2.8c-19.7 15.7-56.4 33.1-83.1 39.4-12.2 2.9-27 3-33.1.3-9.7-4.5-17.2-16.4-20.8-32.9-6.4-29.3-5.4-93.4 2.9-194 3.9-46.9 3.7-62.8-1-78-3.6-11.7-10.3-20.5-18.8-24.7-3.7-1.8-6.3-2.3-12.7-2.3-11.6.1-17 3-31.1 17-12 12-22.9 27.3-34.5 48.5-34 62-60.9 158.4-67.9 243.5-.6 7.1-1.3 13.2-1.6 13.4-.6.6-47 7-51.1 7.1-2.8 0-3.3-.4-3.3-2.3 0-4.2 5-99.4 8.5-161.7 5.6-98.9 5.7-116.6.8-134-3.3-11.7-10.7-22.1-18.6-26.2-52.2-26.6-131.8 140.9-144.6 304.1-.6 6.8-1.4 12.7-1.8 13.1-.9.8-47 7.1-51.5 7-1.6 0-2.8-.3-2.8-.8 0-.4.7-9.9 1.5-21.2 5.5-77.1 10.7-206.2 10.9-269.5.1-44-.3-46.6-7.7-54.1-8.6-8.5-20.9-8.5-53.2 0-7.1 1.9-13 3.4-13.1 3.3-.4-.7-4.2-18.3-3.9-18.5.6-.7 32.4-11.8 46.5-16.4 32.6-10.4 52.5-14.4 62.8-12.8 10.8 1.8 18.5 8.8 21.9 19.8 3.8 12 1.2 62.5-9.2 183.5-2.7 31.2-2.9 35.7-1.7 35.7.4 0 2.3-5.7 4.1-12.8 31.2-117.1 74.1-195.4 120-218.7 21.5-10.8 44.8-11.5 60.1-1.7 13.8 8.9 25.2 27.4 30.9 50.4 7 28.3 6.6 70.9-1.4 154.1-2.9 29.8-2.9 29.5-1.5 28.1.6-.6 3.5-10 6.5-21 31.4-115.9 72.7-189.8 119.2-213.3 14.6-7.3 33.3-10.1 45.8-6.7z"/></svg>